#tb 0: 1/25
#media_type 0: video
#codec_id 0: rawvideo
#dimensions 0: 320x240
#sar 0: 0/1
0,         57,         57,        1,   115200, 0x4a17d50b
0,         58,         58,        1,   115200, 0x1283d05b
0,         59,         59,        1,   115200, 0x2747c650
0,         60,         60,        1,   115200, 0xba23c933
0,         61,         61,        1,   115200, 0x8a96c54b
0,         62,         62,        1,   115200, 0x748ac6d3
0,         63,         63,        1,   115200, 0x719ca491
0,         64,         64,        1,   115200, 0x3d259d4d
0,         65,         65,        1,   115200, 0xe3599aa8
0,         66,         66,        1,   115200, 0x6fd4affe
